#!OML:ASF X:\für Bonn\!DataBase\2005_08_10_Bjorn_Final\c3d\bjorn.ASF
:FULLY-SPECIFIED
:DEGREES
235
root 2.17691 18.3758 -1.72755 611.688 93.7651 613.404
lowerback -1.51443 -1.61665 -2.48359
upperback 14.3273 -0.902888 -2.07891
thorax 16.8868 -0.243481 -1.02601
lowerneck 3.34824 0.323906 7.16425
upperneck 0.169517 0.787926 1.90786
head -0.483407 0.403541 -0.609365
rclavicle -5.56597e-015 1.33186e-014
rhumerus -27.5731 -24.3552 -80.1705
rradius 34.7886
rwrist 8.50669
rhand -10.8854 19.228
rfingers 7.12502
rthumb 15.1309 -10.1989
lclavicle -5.56597e-015 1.33186e-014
lhumerus -3.80906 -1.74612 77.0559
lradius 42.7456
lwrist -11.673
lhand -35.5571 -11.2709
lfingers 7.12502
lthumb -8.68243 18.5305
rfemur -32.3874 -8.38077 7.78316
rtibia 34.6642
rfoot 5.8165 14.8676
rtoes -14.338
lfemur 15.597 0.703764 -18.9769
ltibia 21.9497
lfoot -20.54 -3.50998
ltoes -23.6584
236
root 2.29231 18.381 -1.67323 613.706 93.7986 615.325
lowerback -1.54095 -1.64767 -2.26529
upperback 14.2969 -0.987908 -1.97828
thorax 16.8575 -0.266124 -1.04653
lowerneck 3.39091 0.774362 7.41768
upperneck -0.130689 1.39415 1.17191
head -0.564088 0.699068 -0.894211
rclavicle 1.44119e-014 1.96797e-014
rhumerus -27.4744 -24.5841 -80.0691
rradius 34.4831
rwrist 8.66519
rhand -10.8899 19.2669
rfingers 7.12502
rthumb 15.1265 -10.1603
lclavicle 1.44119e-014 1.96797e-014
lhumerus -4.03929 -1.8601 76.9867
lradius 41.6901
lwrist -12.0813
lhand -34.1087 -10.9163
lfingers 7.12502
lthumb -7.28451 18.9383
rfemur -32.3811 -8.23341 7.80468
rtibia 35.2994
rfoot 4.85123 14.8882
rtoes -14.1015
lfemur 16.1065 0.587675 -18.8138
ltibia 21.4007
lfoot -19.9442 -3.81576
ltoes -23.9387
237
root 2.40761 18.3859 -1.61731 615.781 93.8116 617.282
lowerback -1.57681 -1.6779 -1.99576
upperback 14.2527 -1.07397 -1.91044
thorax 16.814 -0.279588 -1.13273
lowerneck 3.49775 1.21826 7.73922
upperneck -0.469904 1.99957 0.432438
head -0.661733 0.994452 -1.19679
rclavicle 1.09332e-015 7.7526e-015
rhumerus -27.4223 -24.863 -80.0335
rradius 34.2289
rwrist 8.92831
rhand -10.8512 19.2929
rfingers 7.12502
rthumb 15.1639 -10.1315
lclavicle 1.09332e-015 7.7526e-015
lhumerus -4.28073 -2.12971 76.8208
lradius 40.6135
lwrist -12.4516
lhand -32.4562 -10.5883
lfingers 7.12502
lthumb -5.68917 19.3154
rfemur -32.4041 -8.07221 7.85385
rtibia 35.9496
rfoot 3.96229 14.8489
rtoes -13.7467
lfemur 16.5506 0.483661 -18.6023
ltibia 20.9078
lfoot -19.2641 -4.17289
ltoes -23.9631
238
root 2.52283 18.3883 -1.56127 617.774 93.8524 619.156
lowerback -1.61556 -1.68649 -1.71149
upperback 14.2006 -1.12803 -1.87251
thorax 16.7612 -0.273282 -1.25579
lowerneck 3.60522 1.64707 8.14603
upperneck -0.743994 2.58576 -0.307161
head -0.733003 1.28377 -1.51778
rclavicle -8.54774e-015 3.77691e-015
rhumerus -27.407 -25.1399 -80.0134
rradius 33.9742
rwrist 9.05251
rhand -10.8298 19.28
rfingers 7.12502
rthumb 15.1845 -10.1429
lclavicle -8.54774e-015 3.77691e-015
lhumerus -4.47563 -2.50578 76.6419
lradius 39.4494
lwrist -12.8987
lhand -30.7445 -10.3235
lfingers 7.12502
lthumb -4.03641 19.618
rfemur -32.444 -7.9356 7.8844
rtibia 36.6142
rfoot 3.09324 14.8425
rtoes -13.4082
lfemur 16.979 0.36209 -18.4266
ltibia 20.4502
lfoot -18.5822 -4.51584
ltoes -23.7708
239
root 2.63794 18.3919 -1.50353 619.396 93.857 620.684
lowerback -1.63002 -1.69554 -1.41436
upperback 14.1589 -1.18799 -1.8013
thorax 16.7059 -0.271212 -1.34894
lowerneck 3.74523 2.07309 8.48458
upperneck -1.04547 3.16603 -1.06791
head -0.812811 1.5708 -1.83882
rclavicle 1.53561e-014 7.95139e-015
rhumerus -27.4196 -25.3544 -79.9697
rradius 33.8047
rwrist 9.15755
rhand -10.752 19.2339
rfingers 7.12502
rthumb 15.2594 -10.1833
lclavicle 1.53561e-014 7.95139e-015
lhumerus -4.63306 -2.81185 76.558
lradius 38.1894
lwrist -13.4386
lhand -29.084 -10.099
lfingers 7.12502
lthumb -2.43279 19.8669
rfemur -32.4635 -7.7253 7.96031
rtibia 37.2806
rfoot 2.22885 14.7902
rtoes -13.2325
lfemur 17.4021 0.231778 -18.2018
ltibia 20.0425
lfoot -17.8502 -4.83371
ltoes -23.5321
240
root 2.75292 18.3981 -1.44572 621.257 93.8829 622.451
lowerback -1.62855 -1.70571 -1.12101
upperback 14.0981 -1.24826 -1.75056
thorax 16.6151 -0.268846 -1.46237
lowerneck 3.8903 2.49022 8.8458
upperneck -1.27002 3.73477 -1.79534
head -0.863514 1.85531 -2.15597
rclavicle -2.26118e-014 -2.68359e-015
rhumerus -27.4728 -25.577 -79.9171
rradius 33.6319
rwrist 9.20289
rhand -10.6701 19.1555
rfingers 7.12502
rthumb 15.3383 -10.2557
lclavicle -2.26118e-014 -2.68359e-015
lhumerus -4.81048 -3.01001 76.507
lradius 36.853
lwrist -14.2568
lhand -27.499 -9.9113
lfingers 7.12502
lthumb -0.901998 20.0665
rfemur -32.4768 -7.52551 8.00899
rtibia 37.9391
rfoot 1.40392 14.7326
rtoes -13.2112
lfemur 17.7942 0.108654 -17.9892
ltibia 19.6673
lfoot -17.0684 -5.16216
ltoes -23.5277
241
root 2.86835 18.4054 -1.38711 622.86 93.8932 623.97
lowerback -1.63325 -1.71807 -0.823016
upperback 14.0526 -1.31316 -1.67638
thorax 16.5487 -0.26989 -1.55323
lowerneck 4.0948 2.89659 9.13744
upperneck -1.56864 4.29104 -2.52159
head -0.944017 2.13339 -2.46651
rclavicle 2.36243e-014 -9.06955e-016
rhumerus -27.4739 -25.7471 -79.869
rradius 33.5061
rwrist 9.23809
rhand -10.5297 18.9773
rfingers 7.12502
rthumb 15.4735 -10.4234
lclavicle 2.36243e-014 -9.06955e-016
lhumerus -4.94893 -3.12378 76.5333
lradius 35.4772
lwrist -15.1869
lhand -25.9278 -9.5499
lfingers 7.12502
lthumb 0.615447 20.429
rfemur -32.4748 -7.33197 8.09323
rtibia 38.5802
rfoot 0.617184 14.6815
rtoes -13.1196
lfemur 18.1731 -0.032706 -17.7762
ltibia 19.3255
lfoot -16.2843 -5.35606
ltoes -24.0014
242
root 2.98388 18.4158 -1.32766 624.529 93.9279 625.544
lowerback -1.6504 -1.7346 -0.551402
upperback 13.995 -1.38225 -1.60181
thorax 16.4759 -0.2773 -1.62994
lowerneck 4.2672 3.29612 9.35845
upperneck -1.7849 4.83061 -3.20903
head -0.990077 2.40648 -2.75207
rclavicle -7.59109e-015 -1.38901e-014
rhumerus -27.4918 -25.8387 -79.8325
rradius 33.4399
rwrist 9.17414
rhand -10.4159 18.7156
rfingers 7.12502
rthumb 15.5831 -10.6766
lclavicle -7.59109e-015 -1.38901e-014
lhumerus -5.17149 -3.25352 76.5736
lradius 34.1583
lwrist -16.1858
lhand -24.2235 -9.12045
lfingers 7.12502
lthumb 2.26147 20.8473
rfemur -32.4595 -7.0985 8.14737
rtibia 39.1866
rfoot -0.163349 14.596
rtoes -13.1905
lfemur 18.4961 -0.166383 -17.5782
ltibia 19.0351
lfoot -15.4424 -5.55012
ltoes -24.4585
243
root 3.10085 18.4284 -1.26741 625.719 93.9259 626.663
lowerback -1.65284 -1.74439 -0.254991
upperback 13.9457 -1.44541 -1.51309
thorax 16.4039 -0.279859 -1.70334
lowerneck 4.43179 3.69687 9.56383
upperneck -1.98608 5.37104 -3.85149
head -1.02605 2.68118 -3.02159
rclavicle 1.6201e-014 1.82882e-014
rhumerus -27.4944 -25.8982 -79.7916
rradius 33.3648
rwrist 9.09213
rhand -10.2636 18.4485
rfingers 7.12502
rthumb 15.7298 -10.9323
lclavicle 1.6201e-014 1.82882e-014
lhumerus -5.38224 -3.36257 76.6341
lradius 32.8339
lwrist -17.2244
lhand -22.4499 -8.64639
lfingers 7.12502
lthumb 3.97433 21.2963
rfemur -32.4068 -6.8973 8.271
rtibia 39.7494
rfoot -0.973538 14.5697
rtoes -13.5382
lfemur 18.7933 -0.288032 -17.3437
ltibia 18.8518
lfoot -14.6407 -5.68943
ltoes -25.3013
244
root 3.21626 18.4417 -1.20679 626.615 93.9459 627.488
lowerback -1.66011 -1.75722 0.0150481
upperback 13.9181 -1.5076 -1.42112
thorax 16.3642 -0.284511 -1.75891
lowerneck 4.5142 4.08363 9.67635
upperneck -2.17641 5.88031 -4.44877
head -1.04494 2.94113 -3.25704
rclavicle 1.69464e-014 -5.46658e-015
rhumerus -27.4636 -25.9318 -79.7459
rradius 33.3286
rwrist 8.9791
rhand -10.0955 18.2136
rfingers 7.12502
rthumb 15.8916 -11.1543
lclavicle 1.69464e-014 -5.46658e-015
lhumerus -5.5961 -3.51708 76.7071
lradius 31.5835
lwrist -18.2469
lhand -20.6433 -8.25651
lfingers 7.12502
lthumb 5.71875 21.6463
rfemur -32.3286 -6.66429 8.37517
rtibia 40.2529
rfoot -1.69452 14.5183
rtoes -13.5294
lfemur 19.0086 -0.39982 -17.1374
ltibia 18.8005
lfoot -13.8448 -5.76081
ltoes -26.2132
245
root 3.33169 18.4556 -1.14574 627.662 93.9685 628.476
lowerback -1.65652 -1.77556 0.276368
upperback 13.9063 -1.57405 -1.3291
thorax 16.338 -0.29131 -1.81017
lowerneck 4.49228 4.46235 9.68223
upperneck -2.32549 6.36723 -4.90203
head -1.03703 3.18931 -3.41875
rclavicle -9.0447e-015 9.93923e-015
rhumerus -27.3842 -25.9047 -79.7023
rradius 33.2605
rwrist 8.84964
rhand -9.93556 18.0532
rfingers 7.12502
rthumb 16.0457 -11.3024
lclavicle -9.0447e-015 9.93923e-015
lhumerus -5.78068 -3.65188 76.8027
lradius 30.3211
lwrist -19.3213
lhand -18.9616 -7.92029
lfingers 7.12502
lthumb 7.34219 21.9323
rfemur -32.1969 -6.43403 8.4718
rtibia 40.7052
rfoot -2.40386 14.4539
rtoes -13.5521
lfemur 19.1479 -0.499585 -16.9245
ltibia 18.8862
lfoot -13.0268 -5.8566
ltoes -27.1795
246
root 3.44677 18.4702 -1.08449 628.684 93.9707 629.416
lowerback -1.66934 -1.78525 0.590003
upperback 13.8753 -1.63402 -1.25317
thorax 16.2959 -0.28787 -1.90787
lowerneck 4.48232 4.81627 9.62658
upperneck -2.4615 6.8221 -5.25213
head -1.03251 3.4211 -3.53308
rclavicle -4.77083e-015 -8.15017e-015
rhumerus -27.359 -25.9863 -79.6646
rradius 33.2262
rwrist 8.76993
rhand -9.75223 17.8459
rfingers 7.12502
rthumb 16.2222 -11.4954
lclavicle -4.77083e-015 -8.15017e-015
lhumerus -5.9722 -3.78516 76.8934
lradius 29.0126
lwrist -20.5673
lhand -17.291 -7.68604
lfingers 7.12502
lthumb 8.95457 22.1039
rfemur -32.0659 -6.22027 8.61182
rtibia 41.0989
rfoot -3.12632 14.356
rtoes -13.6291
lfemur 19.1675 -0.595392 -16.6828
ltibia 19.1283
lfoot -12.197 -5.93891
ltoes -28.235
247
root 3.5613 18.4838 -1.02344 629.376 93.9932 630.072
lowerback -1.6462 -1.79895 0.837253
upperback 13.8748 -1.69244 -1.14649
thorax 16.2727 -0.293504 -1.93312
lowerneck 4.42404 5.14763 9.45605
upperneck -2.60267 7.23654 -5.57412
head -1.02776 3.63316 -3.61373
rclavicle 4.96962e-016 -2.38542e-014
rhumerus -27.2894 -25.908 -79.6019
rradius 33.2363
rwrist 8.61204
rhand -9.59006 17.5781
rfingers 7.12502
rthumb 16.3784 -11.7504
lclavicle 4.96962e-016 -2.38542e-014
lhumerus -6.12176 -3.95023 77.0325
lradius 27.6539
lwrist -21.7494
lhand -15.711 -7.50935
lfingers 7.12502
lthumb 10.479 22.2095
rfemur -31.8698 -5.98364 8.724
rtibia 41.4493
rfoot -3.82733 14.2915
rtoes -13.7092
lfemur 19.165 -0.74191 -16.4993
ltibia 19.5093
lfoot -11.345 -5.95983
ltoes -28.9109
